<?xml version="1.0" encoding="UTF-8" standalone="no"?>
<!-- Created with Inkscape (http://www.inkscape.org/) -->

<svg
   xmlns:dc="http://purl.org/dc/elements/1.1/"
   xmlns:cc="http://creativecommons.org/ns#"
   xmlns:rdf="http://www.w3.org/1999/02/22-rdf-syntax-ns#"
   xmlns:svg="http://www.w3.org/2000/svg"
   xmlns="http://www.w3.org/2000/svg"
   xmlns:sodipodi="http://sodipodi.sourceforge.net/DTD/sodipodi-0.dtd"
   xmlns:inkscape="http://www.inkscape.org/namespaces/inkscape"
   width="900"
   height="300"
   id="svg2"
   sodipodi:version="0.32"
   inkscape:version="0.48.4 r9939"
   sodipodi:docname="logovaslibre.svg"
   version="1.1">
  <defs
     id="defs4" />
  <sodipodi:namedview
     id="base"
     pagecolor="#ffffff"
     bordercolor="#666666"
     borderopacity="1.0"
     inkscape:pageopacity="0.0"
     inkscape:pageshadow="2"
     inkscape:zoom="0.54258888"
     inkscape:cx="754.07206"
     inkscape:cy="285.33086"
     inkscape:document-units="px"
     inkscape:current-layer="layer1"
     inkscape:window-width="1360"
     inkscape:window-height="768"
     inkscape:window-x="0"
     inkscape:window-y="28"
     showguides="true"
     inkscape:guide-bbox="true"
     showgrid="false"
     inkscape:window-maximized="1" />
  <metadata
     id="metadata7">
    <rdf:RDF>
      <cc:Work
         rdf:about="">
        <dc:format>image/svg+xml</dc:format>
        <dc:type
           rdf:resource="http://purl.org/dc/dcmitype/StillImage" />
        <dc:title></dc:title>
      </cc:Work>
    </rdf:RDF>
  </metadata>
  <g
     inkscape:label="Capa 1"
     inkscape:groupmode="layer"
     id="layer1"
     style="display:inline"
     transform="translate(0,-465)">
    <path
       style="fill:#000000;fill-opacity:1;fill-rule:evenodd;stroke:none"
       d="m 507.13011,913.14006 c 0,-0.0328 0,-0.0657 0,0 z"
       id="path9408"
       inkscape:connector-curvature="0" />
    <g
       id="g2316"
       inkscape:export-filename="/home/julio/logo.png"
       inkscape:export-xdpi="150"
       inkscape:export-ydpi="150"
       transform="matrix(2.1682401,0,0,1,-955.40758,134.54016)">
      <path
         d="m 492.10659,604.50112 63.62767,-84.36155 -38.72989,-5.27265 -23.05349,49.2109 -1.84429,-39.25152 -42.41845,2.9292 11.98782,67.37212 30.43063,9.3735 m 79.42642,-16.6532 c 13.92195,10.7985 28.0632,13.0267 47.57586,13.0267 24.00717,0 48.34323,-10.9699 48.34323,-29.7387 0,-34.70963 -49.65868,-24.25392 -49.65868,-29.65318 0,-8.74169 18.41647,-4.79932 28.94015,-1.62833 l 0,-15.16944 c -11.51027,0.77137 -66.54044,-0.25704 -63.47104,20.56869 2.08282,13.62676 47.24702,10.19866 47.24702,23.99676 0,8.9131 -32.22883,5.9134 -43.08138,-4.5423 l -15.89516,23.1398 m 101.58347,-57.84938 2.63092,70.44768 60.51125,-2.0569 0,-21.0829 -30.91335,1.0285 6.57731,-50.90744 -38.80613,2.57106 m 74.5581,62.50918 c 5.38953,0 4.05801,-9.5308 3.86779,-20.6256 -0.12682,-10.5572 0.63406,-18.8661 -3.48734,-18.8661 -5.70656,0 -2.9801,8.2112 -3.0435,15.7381 1.26812,9.7262 -1.33154,23.7536 2.66305,23.7536 m 12.68721,-2.0039 c 1.90218,1.4174 20.03638,-6.0117 20.22661,-17.5465 0.12681,-5.2297 -2.40945,-3.91 -6.34064,-4.9364 5.64315,-2.9815 10.33523,-6.5494 9.57436,-10.1662 -1.45835,-6.50058 -18.76827,-6.50058 -25.04549,-5.81624 0,0 -0.95109,36.55914 1.58516,38.46534 m 5.1359,-22.9716 c 0.25363,-3.1282 -0.25361,-9.091 0.31704,-10.9972 1.90219,-0.0488 10.71567,0 11.34972,2.1994 1.01451,3.1282 -3.61416,5.0832 -11.66676,8.7978 m -0.19021,16.0801 c 0.0634,-3.2747 -0.25363,-7.8691 0,-10.1173 2.029,-1.564 7.73557,-3.0792 8.43304,-0.4398 1.14131,4.1054 -3.04352,8.8953 -8.43304,10.5571 m 48.13924,-19.9903 c 2.28262,7.8202 -15.40773,8.9932 -16.16861,11.9746 -0.44384,1.7108 3.9946,6.2073 9.38414,9.2376 4.18481,2.346 13.56894,5.2297 14.64685,1.8084 0.9511,-3.0303 -5.07251,-2.8348 -8.11601,-4.6921 -3.1703,-1.9551 -6.0236,-2.1505 -7.86238,-5.1808 8.94028,-3.177 15.34432,-5.4741 14.90048,-13.8808 -0.76088,-14.95601 -28.34261,-12.85432 -30.37161,-10.2639 -2.34603,2.9814 -1.52175,10.9482 -1.52175,17.8886 0,8.26 -0.95109,20.821 3.9312,20.821 4.2482,0 3.29712,-12.6099 3.29712,-20.7722 0,-5.3274 0.31703,-8.3578 0,-13.6852 6.53084,-2.346 15.66135,-0.8797 17.88057,6.7448 m 14.99955,23.1184 c 1.9656,1.7106 18.32441,-1.222 17.75376,-4.1056 -0.82428,-4.1545 -7.41854,-2.004 -12.42763,-1.7106 l -0.44385,-10.5084 c 4.69206,-0.391 11.66676,0.2932 10.65226,-3.6656 -0.82428,-3.177 -6.34063,-1.7108 -11.0961,-1.9551 l 0,-11.2415 c 5.64315,-0.7331 11.79357,-0.8797 11.53994,-3.76345 -0.31702,-3.86115 -11.0961,-1.56402 -18.1976,-0.92863 -0.19022,5.42528 -0.19022,12.65888 -0.25363,19.64808 0,8.309 0.12682,16.178 2.47285,18.2308 m -296.41964,10.59532 c 5.44242,0.97481 4.88424,-3.38616 8.09387,-10.15849 0,0 13.39674,0 13.81539,0 2.5119,6.82363 1.95369,12.0055 5.86108,11.69766 6.27972,-0.46174 1.3955,-13.8525 -0.13954,-20.57351 -1.3955,-6.10535 -3.90739,-22.11268 -11.02443,-22.11268 -6.00061,0 -9.76846,13.28814 -12.48966,20.36829 -2.86077,7.38799 -7.88455,20.11177 -4.11671,20.77873 m 20.93242,-15.28904 -11.44306,0 7.25657,-19.29086 4.18649,19.29086"
         style="font-size:122.50061798px;font-style:normal;font-variant:normal;font-weight:normal;font-stretch:normal;text-align:start;line-height:125%;writing-mode:lr-tb;text-anchor:start;fill:#999999;fill-opacity:0.97752811;stroke:none;display:inline;font-family:Comics"
         id="text2265"
         inkscape:connector-curvature="0" />
      <path
         id="path3584"
         style="font-size:122.50061798px;font-style:normal;font-variant:normal;font-weight:normal;font-stretch:normal;text-align:start;line-height:125%;writing-mode:lr-tb;text-anchor:start;fill:#ee8e00;fill-opacity:0.97752811;stroke:none;display:inline;font-family:Comics"
         d="m 489.50016,602.5463 63.62767,-84.36155 -38.72989,-5.27265 -23.05349,49.2109 -1.84429,-39.25152 -42.41844,2.9292 11.98782,67.37212 30.43062,9.3735 m 79.42642,-16.6532 c 13.92195,10.7985 28.0632,13.0267 47.57586,13.0267 24.00717,0 48.34323,-10.9699 48.34323,-29.7387 0,-34.70963 -49.65868,-24.25392 -49.65868,-29.65318 0,-8.74169 18.41647,-4.79932 28.94015,-1.62833 l 0,-15.16944 c -11.51027,0.77137 -66.54044,-0.25704 -63.47104,20.56869 2.08282,13.62676 47.24702,10.19866 47.24702,23.99676 0,8.9131 -32.22883,5.9134 -43.08138,-4.5423 l -15.89516,23.1398 m 101.58347,-57.84938 2.63092,70.44768 60.51125,-2.0569 0,-21.0829 -30.91335,1.0285 6.57731,-50.90744 -38.80613,2.57106 m 74.5581,62.50918 c 5.38953,0 4.05801,-9.5308 3.86779,-20.6256 -0.12682,-10.5572 0.63406,-18.8661 -3.48734,-18.8661 -5.70656,0 -2.9801,8.2112 -3.0435,15.7381 1.26812,9.7262 -1.33154,23.7536 2.66305,23.7536 m 12.68721,-2.0039 c 1.90218,1.4174 20.03638,-6.0117 20.22661,-17.5465 0.12681,-5.2297 -2.40945,-3.91 -6.34064,-4.9364 5.64315,-2.9815 10.33523,-6.5494 9.57436,-10.1662 -1.45835,-6.50058 -18.76827,-6.50058 -25.04549,-5.81624 0,0 -0.95109,36.55914 1.58516,38.46534 m 5.1359,-22.9716 c 0.25363,-3.1282 -0.25361,-9.091 0.31704,-10.9972 1.90219,-0.0488 10.71567,0 11.34972,2.1994 1.01451,3.1282 -3.61416,5.0832 -11.66676,8.7978 m -0.19021,16.0801 c 0.0634,-3.2747 -0.25363,-7.8691 0,-10.1173 2.029,-1.564 7.73557,-3.0792 8.43304,-0.4398 1.14131,4.1054 -3.04352,8.8953 -8.43304,10.5571 m 48.13924,-19.9903 c 2.28262,7.8202 -15.40773,8.9932 -16.16861,11.9746 -0.44384,1.7108 3.9946,6.2073 9.38414,9.2376 4.18481,2.346 13.56894,5.2297 14.64685,1.8084 0.9511,-3.0303 -5.07251,-2.8348 -8.11601,-4.6921 -3.1703,-1.9551 -6.0236,-2.1505 -7.86238,-5.1808 8.94028,-3.177 15.34432,-5.4741 14.90048,-13.8808 -0.76088,-14.95601 -28.34261,-12.85432 -30.37161,-10.2639 -2.34603,2.9814 -1.52175,10.9482 -1.52175,17.8886 0,8.26 -0.95109,20.821 3.9312,20.821 4.2482,0 3.29712,-12.6099 3.29712,-20.7722 0,-5.3274 0.31703,-8.3578 0,-13.6852 6.53084,-2.346 15.66135,-0.8797 17.88057,6.7448 m 14.99955,23.1184 c 1.9656,1.7106 18.32441,-1.222 17.75376,-4.1056 -0.82428,-4.1545 -7.41854,-2.004 -12.42763,-1.7106 l -0.44385,-10.5084 c 4.69206,-0.391 11.66676,0.2932 10.65226,-3.6656 -0.82428,-3.177 -6.34063,-1.7108 -11.0961,-1.9551 l 0,-11.2415 c 5.64315,-0.7331 11.79357,-0.8797 11.53994,-3.76345 -0.31702,-3.86115 -11.0961,-1.56402 -18.1976,-0.92863 -0.19022,5.42528 -0.19022,12.65888 -0.25363,19.64808 0,8.309 0.12682,16.178 2.47285,18.2308 M 529.4202,595.38092 c 5.44242,0.97481 4.88424,-3.38616 8.09387,-10.15849 0,0 13.39674,0 13.81539,0 2.5119,6.82363 1.95369,12.0055 5.86108,11.69766 6.27972,-0.46174 1.3955,-13.8525 -0.13954,-20.57351 -1.3955,-6.10535 -3.90739,-22.11268 -11.02443,-22.11268 -6.00061,0 -9.76846,13.28814 -12.48966,20.36829 -2.86077,7.38799 -7.88455,20.11177 -4.11671,20.77873 m 20.93242,-15.28904 -11.44306,0 7.25657,-19.29086 4.18649,19.29086"
         inkscape:connector-curvature="0" />
      <path
         inkscape:export-ydpi="90.000000"
         inkscape:export-xdpi="90.000000"
         inkscape:export-filename="/home/julio/documentos/imagenes/logos/proto18.png"
         sodipodi:nodetypes="csssssssssssssssssssssss"
         id="path1387"
         d="m 552.29912,510.96282 c -2.63948,-14.17004 12.45513,-46.9069 23.3707,-57.30958 3.73413,-3.55867 -13.27525,-4.97709 -9.59978,-8.95347 1.83773,-1.98819 12.67857,-4.61587 23.20952,-6.97239 10.53095,-2.35651 5.70311,-16.42526 8.80944,-18.16486 8.97892,-5.02835 3.03564,-17.71449 14.87422,-15.63212 11.83859,2.08238 12.19727,-22.03319 18.73119,-27.06837 13.06783,-10.07035 33.38592,-19.28929 34.35598,-22.10723 1.07901,-3.13444 61.97426,-7.00993 67.51269,4.97266 2.30348,4.98367 1.0537,13.70649 3.57875,15.37444 2.52504,1.66795 -35.49632,60.07779 -36.63159,62.84031 -2.32931,5.66804 5.31526,29.08053 7.60542,30.94068 2.29015,1.86014 32.94657,17.14273 35.11716,19.09173 2.17059,1.94899 18.21521,3.94119 2.70776,19.0723 -0.25828,0.25201 -0.81668,1.08134 -1.59894,2.34473 -0.78226,1.26338 -38.29591,13.82948 -39.44962,15.8177 -1.15372,1.98823 16.49544,21.8243 15.1228,24.25084 -1.37264,2.42655 -34.02915,-22.03169 -35.46818,-19.45337 -1.43903,2.57831 8.55289,15.75085 7.19999,18.19441 -1.3529,2.44351 -6.67831,20.55981 -13.49275,19.03241 -5.33191,-1.195 8.95773,-13.1668 4.866,-24.36779 -4.09174,-11.20097 -21.79006,-19.42489 -22.15158,-18.76767 -0.36152,0.65723 -43.29561,-7.08446 -56.2805,-9.44475 -12.98489,-2.36028 -4.29704,-2.88623 -9.40301,-3.56223"
         style="fill:#00d600;fill-opacity:1;stroke:none;display:inline"
         inkscape:connector-curvature="0" />
      <path
         sodipodi:nodetypes="csssccsssssssssssccssccssccssccssssssccssssssccsscccscscccsssssssssssssssssssssscccssscccscccsssssssssssssssssssssssssssssccsssssssssssssssssssssssssssssssssssssssssssssssssssssssssssssssccssssssssccsssssssssccssccssssssccssccsscccccsssssccssc"
         inkscape:export-ydpi="90.000000"
         inkscape:export-xdpi="90.000000"
         inkscape:export-filename="/home/julio/documentos/imagenes/logos/proto18.png"
         d="m 734.84116,487.21736 c -3.0544,0.2638 -22.01021,6.97533 -25.03243,6.1414 -5.39262,-1.488 -10.02073,-11.08471 -8.27902,-14.82631 3.79303,-8.1484 11.13218,-8.23027 18.82991,-0.21003 3.29114,3.42902 11.10214,6.55311 16.02052,8.35638 m -68.54045,-0.89503 c 2.81806,-9.68501 5.55214,-19.37002 6.07575,-21.52224 0.52359,-2.15223 1.83691,-6.26102 2.91846,-9.13065 2.78048,-7.37733 -15.11724,16.24248 -21.25021,28.04414 -2.79613,5.38056 -6.09435,9.78284 -7.3294,9.78284 -3.43485,0 -2.69825,-3.42392 2.21308,-10.28725 2.45223,-3.42689 3.05191,-5.37972 1.33262,-4.33964 -1.71929,1.04006 -3.126,0.6397 -3.126,-0.88969 0,-1.52941 9.63197,-12.33613 21.40437,-24.01496 21.37217,-21.20229 22.15919,-20.98469 10.88245,3.00894 -3.03459,6.45667 -5.54375,14.94397 -5.57594,18.86068 -0.067,8.15104 -7.62809,28.09695 -10.65097,28.09695 -1.10986,0 0.28773,-7.9241 3.10579,-17.60912 z m -9.78794,2.74277 c 4.49607,-10.53259 6.61365,-13.554 6.61365,-9.43655 0,5.42254 -5.93623,19.08538 -8.29219,19.08538 -1.34216,0 -0.58683,-4.34199 1.67854,-9.64883 z m -1.38206,-33.0914 c 0,-0.55006 2.40037,-1.61451 5.33415,-2.36547 2.93379,-0.75096 4.66203,-0.30089 3.84055,1.00012 -1.43456,2.27199 -9.1747,3.42386 -9.1747,1.36535 z m -6.64422,-6.79629 c -0.93373,-1.4788 0.13609,-1.91613 2.50794,-1.02526 4.6173,1.73427 5.4621,3.60415 1.62835,3.60415 -1.37937,0 -3.24071,-1.1605 -4.13629,-2.57889 z m -4.01672,-9.78912 c -3.54801,-3.45588 -3.34282,-3.5662 1.82372,-0.9805 12.07186,6.04156 26.07788,0.78852 20.68214,-7.75696 -0.82422,-1.30534 -0.22844,-2.37334 1.32396,-2.37334 1.55239,0 2.82253,1.76091 2.82253,3.91313 0,2.15223 1.4992,3.91932 3.33155,3.92689 1.83235,0.008 -0.26652,2.23771 -4.66416,4.95593 -8.72012,5.39001 -18.74058,4.72308 -25.31974,-1.68515 z m 56.93377,-12.41518 c 0.84376,-2.15223 0.30163,-3.91314 -1.20476,-3.91314 -1.5064,0 -1.91852,-1.29926 -0.91583,-2.88727 1.32177,-2.09334 2.34095,-2.0671 3.70641,0.0954 1.13171,1.79237 3.81944,-1.2198 6.7347,-7.54776 2.66827,-5.79175 5.9108,-10.53046 7.20562,-10.53046 2.62611,0 -0.86641,7.4628 -9.45348,20.20005 -6.11591,9.07183 -8.55373,10.91168 -6.07266,4.58315 z m -113.40344,2.13107 c 1.92395,-0.75362 4.22272,-0.66093 5.10838,0.20593 0.88563,0.86686 -0.68854,1.48344 -3.49813,1.37017 -3.10486,-0.12517 -3.73639,-0.74334 -1.61025,-1.5761 z m 91.43928,138.99352 c 1.77686,-0.6252 5.15612,-5.3187 8.27583,-10.2596 0,0 3.46475,-4.7428 3.51245,-9.26201 0.0477,-4.5191 -2.69463,-8.6754 -2.69463,-8.6754 -7.18691,-11.92279 -3.49322,-11.49789 11.66283,1.3416 19.47224,16.49591 26.91909,13.60851 14.6528,-5.6813 l -7.62585,-11.99239 15.14317,-4.1903 c 39.41267,-10.90581 44.25322,-29.33246 9.62089,-36.62414 -9.23739,-1.94488 -26.3768,-20.23663 -30.92332,-33.00242 -2.54996,-7.15987 -1.86998,-9.38558 6.5716,-21.5102 5.17873,-7.43819 11.37591,-18.21974 13.77148,-23.95901 2.39559,-5.73926 7.84919,-14.51561 11.60818,-19.84357 3.0038,-4.25755 2.67247,-7.20844 3.21704,-9.72581 0.54457,-2.51738 0.98965,-4.74058 0.25127,-8.51813 -2.28418,-11.68583 -10.16798,-15.21052 -23.66356,-15.30905 -6.24987,-0.0456 -13.60768,-1.45483 -16.35068,-3.13158 -3.95257,-2.4161 -6.99246,-2.11724 -14.65216,1.4405 -5.31568,2.46901 -10.60652,3.91943 -11.75747,3.2232 -1.15093,-0.69625 -8.5254,2.17735 -16.38771,6.38577 -7.86231,4.20845 -16.5022,7.65169 -19.19977,7.65169 -2.69756,0 -4.90464,0.95483 -4.90464,2.12184 0,1.16702 -4.19775,3.73401 -9.32833,5.70443 -9.74234,3.74159 -11.62997,6.48243 -5.99678,8.70731 1.83235,0.72369 0.16162,1.40849 -3.7127,1.52176 -6.91085,0.20208 -11.75638,6.19191 -8.79852,10.87641 0.82422,1.30534 -0.37125,2.37334 -2.65658,2.37334 -2.28533,0 -4.15515,1.66308 -4.15515,3.69575 0,2.03264 -1.4992,4.28786 -3.33155,5.01155 -1.83235,0.7237 -0.93283,1.46145 1.99893,1.63945 4.26195,0.25873 3.7277,1.04196 -2.66524,3.90721 l -7.9957,3.58357 7.9957,0.41237 c 7.73244,0.3988 7.64467,0.51982 -2.66523,3.6753 -5.86352,1.79459 -10.38546,4.56767 -10.04876,6.1624 0.33667,1.59473 -2.06204,3.81515 -5.33048,4.93426 -5.14331,1.76104 -4.50867,2.25897 4.7183,3.7019 l 10.66094,1.66721 -11.00092,0.37021 c -11.2426,0.37832 -22.98979,8.08693 -12.64622,8.29856 3.12006,0.0638 1.49424,1.60613 -4.33783,4.115 l -9.32833,4.01289 7.99571,3.68539 c 4.39764,2.02698 5.59699,3.13688 2.66524,2.46645 -5.8434,-1.33623 -14.22349,2.56637 -11.41457,5.31576 0.9665,0.94602 -1.46694,4.69644 -5.40765,8.3343 -4.73983,4.37559 -6.03226,7.00707 -3.81849,7.77475 2.25703,0.78268 1.38942,2.75829 -2.66523,6.06891 -5.75065,4.69537 -5.78023,4.91281 -0.68118,5.00824 4.63788,0.0868 4.29159,0.93326 -2.66524,6.51485 -4.39764,3.52832 -6.91031,6.45735 -5.58369,6.50895 1.32659,0.0516 0.12724,2.64075 -2.66524,5.7537 -4.79646,5.34683 -4.80726,5.56323 -0.19509,3.91313 2.68517,-0.9607 9.60431,-1.7467 15.37587,-1.7467 9.80591,0 10.38629,-0.4191 8.85453,-6.39275 -1.87116,-7.29732 8.31281,-31.17274 19.32383,-45.30303 5.66565,-7.27065 6.24766,-9.33546 3.22544,-11.44336 -2.95092,-2.05821 -2.82443,-2.3044 0.6331,-1.23243 2.7183,0.84278 8.40179,-2.73064 15.32511,-9.6355 11.86296,-11.83134 12.79497,-13.70552 7.67286,-15.42939 -1.83235,-0.61668 -1.31582,-0.83397 1.14784,-0.48283 2.46366,0.35114 7.22966,-2.22704 10.59109,-5.72932 5.19712,-5.41487 5.52391,-6.75387 2.1837,-8.94791 -3.16774,-2.08074 -2.89631,-2.43285 1.40248,-1.81916 2.93175,0.41854 6.21162,1.93491 7.28859,3.36973 1.07697,1.43481 2.00282,-0.3261 2.05745,-3.91314 0.17236,-11.31496 9.67326,-28.07137 18.42949,-32.50344 4.51283,-2.28423 8.20514,-5.07101 8.20514,-6.19285 0,-2.04741 18.45156,-10.8701 22.73342,-10.8701 1.25709,0 -6.34454,5.95144 -16.8925,13.22541 -17.28099,11.91709 -24.49756,19.25756 -24.49756,24.91815 0,1.08018 3.29822,-1.01051 7.32939,-4.64594 14.25168,-12.85262 19.78071,-7.21671 27.27557,-11.84493 l 18.70262,-11.54926 c 4.45928,-2.7537 4.08583,-11.86314 5.75118,-13.13984 1.66532,-1.27672 9.96934,1.15315 17.59815,0.94737 9.74682,-0.26293 19.74041,2.991 22.82888,5.2015 2.396,1.71487 3.37043,4.44115 2.52539,7.40295 -0.84504,2.96177 -2.70228,7.0553 -7.34091,10.10105 -4.44627,2.91944 -14.90387,8.54444 -23.95439,13.27029 -4.52526,2.36292 -8.48325,5.54652 -11.59316,5.96382 -7.22971,0.97012 -9.65802,-1.92074 -11.50547,-0.059 -1.12545,1.13415 8.11002,4.62806 15.25867,1.27714 3.15662,-1.47966 7.05823,-3.8056 11.13753,-6.17485 8.15861,-4.73849 16.83729,-10.04114 20.35333,-11.82968 7.03209,-3.5771 6.80651,-7.49201 7.95813,-6.3648 2.30324,2.25444 -1.0226,7.75146 -11.84921,19.09738 -16.50359,17.2952 -18.79423,19.1258 -21.71863,17.35669 -1.1694,-0.70741 -2.14637,0.2505 -2.17105,2.1287 -0.0247,1.8782 -4.82208,8.02352 -10.66094,13.65624 -13.07492,12.61342 -14.15642,8.86774 -1.2936,-4.48031 5.12738,-5.32079 8.19656,-9.67415 6.82039,-9.67415 -1.37617,0 -3.37008,1.37465 -4.43095,3.05477 -1.26252,1.99956 -2.8381,0.87313 -4.5611,-3.26094 -2.18149,-5.23414 -2.82445,-5.53388 -3.75436,-1.7504 -1.37446,5.59218 -1.94684,5.6153 -10.06792,0.40694 -3.56617,-2.28713 -8.02153,-3.55376 -9.90087,-2.81472 -2.18,0.85726 -1.76247,1.41822 1.15346,1.54963 5.40054,0.24337 11.13413,9.48304 8.48656,13.67609 -1.15042,1.82201 -3.28338,0.24643 -5.64899,-4.17281 -2.45865,-4.59311 -5.22029,-6.56687 -7.82121,-5.58996 -2.21132,0.8306 -5.35713,1.51015 -6.99065,1.51015 -1.63355,0 1.0219,4.03142 5.90102,8.95871 5.54667,5.60145 8.27092,10.48955 7.26956,13.04379 -2.29242,5.84734 -9.09506,5.04194 -11.15833,-1.3211 -1.05394,-3.25031 -3.25126,-4.84345 -5.51008,-3.99503 -5.12002,1.92312 -4.89201,-6.97099 0.43731,-17.05835 4.95374,-9.3765 3.14344,-12.64984 -3.662,-6.6215 -4.19484,3.71584 -5.53106,3.79903 -10.15039,0.63211 -5.03522,-3.45207 -5.30648,-3.13469 -5.07397,5.9368 0.13513,5.2711 1.28267,11.22618 2.55015,13.23354 1.70095,2.69386 1.32412,3.09689 -1.43885,1.53881 -2.05884,-1.16103 -0.58801,1.29895 3.26851,5.46662 3.85654,4.16765 6.66037,9.63753 6.23076,12.1553 -0.42964,2.51776 0.33251,3.90408 1.69362,3.08068 1.36111,-0.82338 1.6702,-2.77126 0.68683,-4.32863 -1.07598,-1.7041 -0.54536,-2.07991 1.33262,-0.94385 1.71628,1.03823 2.45474,2.94213 1.64101,4.23088 -0.81372,1.28875 0.96575,3.8379 3.95439,5.66479 6.3182,3.86216 7.31188,7.82569 1.4058,5.60734 -2.99359,-1.1244 -3.56177,-0.32349 -2.2123,3.11858 1.31385,3.35134 0.87494,4.06241 -1.58792,2.57255 -2.53632,-1.53431 -2.93235,-0.60536 -1.55405,3.64524 2.37704,7.33069 -8.46998,23.53185 -15.93739,23.80418 -4.58455,0.16717 -4.39806,0.57896 1.33262,2.94271 3.6647,1.51159 14.72583,6.10887 24.58029,10.2162 9.85444,4.10731 22.72244,8.21995 28.59553,9.13925 5.87308,0.9192 12.80229,3.382 15.39826,5.4727 4.516,3.6372 4.51589,3.7385 -0.003,2.344 -2.59748,-0.8016 2.19994,4.9294 10.66094,12.73569 10.23808,9.4458 13.858,14.2248 10.82246,14.2882 -2.50863,0.0523 -9.3109,-4.6006 -15.1161,-10.3399 -5.8052,-5.73919 -13.04769,-10.43499 -16.0944,-10.43499 -6.83417,0 -6.8714,1.1879 -0.36063,11.49929 5.15036,8.1567 5.14841,8.2489 -0.35583,16.75801 -3.27395,5.0613 -5.51338,9.588 -7.78326,9.2087 -1.16708,-0.195 -4.26413,-2.3555 -4.50797,-0.9808 -0.56527,3.187 2.79667,4.7879 6.701,3.414 z m -1.21045,-5.5893 c 2.5654,-2.511 6.81791,-11.2961 6.1412,-14.32761 -0.67671,-3.0315 -0.28001,-5.4198 -3.64759,-8.7893 -2.41646,-2.4178 -6.56371,-8.94169 -12.38063,-12.28119 -5.81693,-3.3394 -13.30354,-3.4944 -13.48085,-3.207 -0.17732,0.2873 6.67598,1.8531 12.12114,5.7173 5.44516,3.8643 9.48217,10.02699 11.47546,11.70519 7.97315,6.7129 1.15822,14.12671 -2.55381,18.50471 -1.85601,2.1889 -4.17622,5.047 -2.71858,5.7301 0.75198,0.3524 2.75192,-0.809 5.04366,-3.0522 z m -18.43309,-38.3832 c -0.6149,-0.6018 -13.53863,-3.4561 -25.9945,-5.8318 -34.01975,-6.4886 -39.97104,-8.70466 -39.97104,-14.88371 0,-1.15065 8.85443,-26.87041 17.71859,-39.11593 9.58873,-13.24647 10.10218,-15.72291 8.91489,-15.92998 -1.80413,-0.31466 -11.08246,14.89692 -18.50406,28.03953 -7.4216,13.14262 -11.48658,24.39891 -12.40984,25.14892 -3.85947,3.13521 -3.58277,4.06452 2.81388,9.45007 4.23084,3.5621 10.57338,5.9729 15.71401,5.9729 4.74084,0 15.52667,1.7609 23.96851,3.9132 14.5629,3.7128 30.17279,5.6087 27.74956,3.2368 z m -66.0885,-55.96042 c 0.11572,-2.75 -0.51418,-4.2908 -1.39983,-3.424 -0.88564,0.8669 -0.98031,3.117 -0.2104,5.0002 0.8508,2.0811 1.48235,1.4629 1.61023,-1.5762 z m 27.41087,6.38231 c 0.90596,-1.4348 0.90071,-3.79101 -0.0117,-5.23595 -0.91236,-1.44497 0.21623,-3.33146 2.50796,-4.19225 2.29173,-0.86078 4.16677,-3.405 4.16677,-5.65383 0,-3.14368 -1.57677,-2.63886 -6.82158,2.18395 -3.75186,3.45003 -5.61827,6.66535 -4.14756,7.1452 1.4707,0.47983 2.01337,2.5575 1.20593,4.61698 -1.66854,4.2561 0.60419,5.0888 3.10013,1.1359 z m -31.85625,-16.98015 c 0.11572,-2.7501 -0.51418,-4.2909 -1.39984,-3.424 -0.88563,0.8668 -0.9803,3.1169 -0.21039,5.0001 0.85079,2.0811 1.48235,1.463 1.61023,-1.5761 z m 148.31042,31.7609 c 15.01421,1.22163 16.65999,8.28569 7.92604,14.93839 -6.08692,4.63646 -36.89776,15.75867 -39.72824,14.34117 -0.73294,-0.367 -5.24345,-2.1776 -10.02333,-4.0235 l -8.69072,-3.3562 12.42388,-8.15319 c 12.4968,-9.56149 30.10145,-12.32486 32.20828,-13.2081 m -27.29,5.36097 c -2.83009,-0.75583 -16.64115,-17.50301 -22.29636,-18.55231 -2.58199,-0.47908 -7.66229,20.45224 -9.18811,22.01947 -1.68294,1.72862 -2.43691,3.22191 -2.62444,3.41453 -2.16966,2.22855 7.23282,4.67903 10.20958,5.44341 2.54428,0.65334 6.09769,-2.04506 7.31154,-2.50261 1.56356,-0.58938 14.43323,-6.52714 16.58779,-9.82249 z m -89.81052,-69.44186 c 0.11572,-2.7501 -0.51418,-4.2909 -1.39984,-3.424 -0.88563,0.8668 -0.9803,3.1169 -0.21039,5.0001 0.85079,2.0811 1.48235,1.463 1.61023,-1.5761 z"
         style="fill:#000000;fill-opacity:1;stroke:none;display:inline"
         id="path20902"
         inkscape:connector-curvature="0" />
      <path
         inkscape:export-ydpi="90.000000"
         inkscape:export-xdpi="90.000000"
         inkscape:export-filename="/home/julio/documentos/imagenes/logos/proto18.png"
         sodipodi:nodetypes="cscsssssc"
         id="path2108"
         d="m 720.51361,549.16448 c 6.56501,15.18686 -31.56898,-17.20901 -30.12674,-13.9297 1.44224,3.27931 5.80775,12.67495 4.55699,17.64481 -2.4982,5.0163 -9.58401,16.33632 -12.22226,14.17486 -0.98572,-0.80758 10.82884,-20.58048 9.78378,-22.50369 -0.96345,-1.77302 -4.47935,-3.87518 -2.91623,-4.26892 0.23887,-0.0602 -8.3468,-11.21465 -3.39004,-10.96173 1.23919,0.0632 4.08839,-0.10893 7.12046,1.69794 3.03208,1.80687 6.15292,11.53275 27.19404,18.14643 z"
         style="fill:#000000;fill-opacity:0.36516855;fill-rule:evenodd;stroke:none"
         inkscape:connector-curvature="0" />
    </g>
  </g>
  <g
     inkscape:groupmode="layer"
     id="layer2"
     inkscape:label="Capa 2"
     style="display:inline"
     transform="translate(0,-465)" />
</svg>
